<svg width="66" height="47" viewBox="0 0 66 47" fill="none" xmlns="http://www.w3.org/2000/svg">
<g clip-path="url(#clip0_99_718)">
<path d="M62.2876 8.08567H5.10461C3.05464 8.08567 1.39258 6.40918 1.39258 4.34142C1.39258 2.27366 3.05464 0.597168 5.10461 0.597168H62.2876C64.3376 0.597168 65.9996 2.27366 65.9996 4.34142C65.9996 6.40918 64.3376 8.08567 62.2876 8.08567Z" fill="white"/>
<path d="M15.2992 20.4127C21.1762 20.4127 25.9583 25.2363 25.9583 31.1644C25.9583 37.0924 21.1772 41.9169 15.2992 41.9169C9.42115 41.9169 4.64004 37.0934 4.64004 31.1653C4.64004 25.2372 9.42208 20.4127 15.2992 20.4127ZM15.2992 15.7324C6.84963 15.7324 0 22.6424 0 31.1653C0 39.6881 6.84963 46.5972 15.2992 46.5972C23.7487 46.5972 30.5983 39.6881 30.5983 31.1653C30.5983 22.6424 23.7487 15.7324 15.2992 15.7324Z" fill="white"/>
<path d="M49.9222 20.4127C55.7993 20.4127 60.5813 25.2363 60.5813 31.1644C60.5813 37.0924 55.8002 41.9169 49.9222 41.9169C44.0442 41.9169 39.2631 37.0934 39.2631 31.1653C39.2631 25.2372 44.0451 20.4127 49.9222 20.4127ZM49.9222 15.7324C41.4727 15.7324 34.623 22.6415 34.623 31.1644C34.623 39.6872 41.4727 46.5963 49.9222 46.5963C58.3717 46.5963 65.2214 39.6872 65.2214 31.1644C65.2214 22.6415 58.3717 15.7324 49.9222 15.7324Z" fill="white"/>
<path d="M15.2986 33.8621C16.7752 33.8621 17.9722 32.6547 17.9722 31.1653C17.9722 29.6759 16.7752 28.4685 15.2986 28.4685C13.822 28.4685 12.625 29.6759 12.625 31.1653C12.625 32.6547 13.822 33.8621 15.2986 33.8621Z" fill="white"/>
<path d="M49.9236 33.8621C51.4002 33.8621 52.5972 32.6547 52.5972 31.1653C52.5972 29.6759 51.4002 28.4685 49.9236 28.4685C48.447 28.4685 47.25 29.6759 47.25 31.1653C47.25 32.6547 48.447 33.8621 49.9236 33.8621Z" fill="white"/>
</g>
<defs>
<clipPath id="clip0_99_718">
<rect width="66" height="46" fill="white" transform="translate(0 0.597168)"/>
</clipPath>
</defs>
</svg>
