<svg width="220" height="50" viewBox="0 0 220 50" fill="none" xmlns="http://www.w3.org/2000/svg">
<path d="M150.379 43.0368C150.467 42.1412 150.147 41.354 149.514 40.6088C148.868 39.8507 148.545 39.0316 149.031 38.1279L149.109 37.9223C149.395 37.1081 149.263 36.3561 148.488 35.7318C147.905 35.2621 147.746 34.7229 147.916 34.1028C148.141 33.288 148.067 32.5323 147.434 31.8018C146.885 31.1679 146.791 30.4679 147.227 29.7179C147.595 29.0882 147.835 28.4087 148.068 27.7386C148.25 27.2165 148.251 26.6636 147.997 26.1558C147.791 25.7413 147.845 25.3653 147.972 24.9575C148.108 24.5272 148.185 24.0828 148.258 23.643C148.316 23.3047 148.17 23.0048 147.845 22.7726C147.416 22.468 147.268 22.0892 147.339 21.6571C147.425 21.1617 147.548 20.6715 147.214 20.1947C147.155 20.1114 147.19 19.9839 147.199 19.8773C147.282 19.0164 147.001 18.2154 146.566 17.4354C146.316 16.9862 146.21 16.5131 146.275 16.0239C146.403 15.075 146.325 14.1279 146.112 13.198C145.883 12.1977 145.521 11.2174 145.249 10.2227C145.155 9.87866 145.093 9.5165 145.121 9.16814C145.177 8.45762 145.287 7.74806 145.41 7.04088C145.558 6.18855 145.827 5.36191 146.301 4.57573C146.755 3.81477 147.178 3.04144 147.599 2.26906C147.749 1.99018 147.879 1.70131 147.969 1.40721C148.08 1.05362 148.074 0.696693 147.798 0.374987C147.431 -0.051893 146.947 -0.131845 146.466 0.226029C146.075 0.521086 145.705 0.858023 145.442 1.22637C144.925 1.95068 144.331 2.6217 143.616 3.23465C143.118 3.66153 142.905 4.17122 142.874 4.75276C142.818 5.88302 142.485 6.94189 141.429 7.79708C141.129 8.04122 140.865 8.31581 140.623 8.59706C140.378 8.87594 140.121 9.16481 139.982 9.47937C139.651 10.2194 139.291 10.9656 139.122 11.7342C138.898 12.7578 138.552 13.7486 138.202 14.748C137.911 15.578 137.413 16.26 136.663 16.8586C136.188 17.2379 135.856 17.6872 135.648 18.1835C135.4 18.7779 135.182 19.379 134.975 19.9829C134.882 20.258 134.817 20.5421 134.782 20.8243C134.623 22.1749 134.496 23.5283 134.32 24.8756C134.277 25.1949 134.314 25.5495 134.028 25.8398L133.906 25.757C133.45 25.2701 133.395 24.7062 133.325 24.1308C133.162 22.7821 132.986 21.4368 133.056 20.0786C133.076 19.6683 133.056 19.2572 133.072 18.8469C133.086 18.5114 132.905 18.2621 132.578 18.0617C132.452 17.986 132.324 17.9161 132.179 17.8328C132.205 17.5801 132.231 17.3322 132.257 17.0852C132.316 16.4822 132.209 15.9221 131.707 15.4162C131.527 15.2373 131.449 14.9536 131.451 14.7195C131.458 14.1146 131.531 13.5083 131.594 12.9044C131.642 12.4038 131.409 11.9969 130.959 11.6528C130.843 11.5667 130.694 11.4962 130.611 11.3949C130.483 11.2373 130.295 11.0551 130.308 10.8909C130.348 10.306 130.414 9.71685 130.56 9.14387C130.676 8.69224 130.941 8.26489 131.108 7.81945C131.407 7.01423 131.72 6.21186 131.957 5.39475C132.077 4.97691 131.81 4.68519 131.356 4.52671C130.922 4.37205 130.559 4.40964 130.212 4.77704C129.614 5.40808 129.055 6.06529 128.547 6.73916C128.323 7.0385 128.231 7.40494 128.13 7.75044C127.964 8.33009 127.786 8.9064 127.228 9.34517C126.625 9.82012 126.294 10.3988 126.081 11.0303C126.046 11.1345 125.978 11.2326 125.898 11.3839C125.522 10.632 125.368 10.5582 124.552 10.7096C124.523 10.6073 124.512 10.4997 124.461 10.4045C124.235 9.97954 123.804 9.91339 123.397 10.2532C123.227 10.3936 123.054 10.5559 122.97 10.7334C122.655 11.4034 122.339 12.0749 122.092 12.7597C121.848 13.4469 121.724 14.1593 121.487 14.8475C120.962 16.3623 120.576 17.9094 119.734 19.3519C119.631 19.5275 119.593 19.7278 119.546 19.9196C119.302 20.9518 119.339 21.9788 119.62 23.0049C119.957 24.2255 119.923 25.4529 119.678 26.6802C119.521 27.4735 118.921 28.086 118.274 28.6733C117.249 29.6008 116.802 30.6682 116.929 31.8903C116.991 32.4847 117.153 33.0501 117.462 33.5964C117.998 34.5396 118.196 35.5062 117.711 36.5065C117.63 36.6731 117.571 36.8501 117.544 37.0253C117.471 37.4688 117.449 37.9033 117.709 38.3368C117.856 38.5848 117.922 38.8832 117.925 39.1601C117.935 40.2499 117.901 41.3388 117.898 42.4286C117.897 42.6209 117.943 42.8193 118.011 43.0059C118.106 43.2762 118.309 43.4979 118.682 43.565C119.085 43.6374 119.332 43.4332 119.541 43.2129C119.915 42.8174 120.179 42.3805 120.243 41.8899C120.358 41.0071 120.732 40.1909 121.176 39.3819C121.377 39.0131 121.459 38.5905 121.494 38.1874C121.559 37.3974 121.335 36.626 121.124 35.8565C121.072 35.668 121.034 35.4624 121.076 35.2759C121.286 34.3583 121.738 33.5093 122.638 32.8835C123.378 32.3643 123.686 31.7785 123.558 31.0309C123.529 30.8529 123.547 30.6697 123.499 30.4959C123.346 29.9577 123.437 29.439 123.592 28.9084C123.804 28.1788 124.042 27.445 124.121 26.7021C124.251 25.469 124.523 24.2636 124.897 23.0662C125.158 22.2353 125.163 21.4106 124.78 20.5897C124.409 19.7906 124.442 18.9811 124.801 18.1726C124.979 17.7686 125.078 17.3445 125.25 16.9391C125.44 16.4893 125.571 16.0125 126.11 15.5552C126.153 15.814 126.214 15.9816 126.204 16.1443C126.167 16.6792 126.119 17.2132 126.05 17.7433C125.964 18.4329 126.154 19.0235 126.942 19.4275C127.292 19.6055 127.472 19.862 127.54 20.1775C127.609 20.494 127.814 20.7924 128.165 20.9171C128.994 21.2145 129.133 21.767 129.21 22.3667L129.231 22.5266C129.395 23.594 129.636 24.6348 130.32 25.6018C130.596 25.9916 130.634 26.487 130.756 26.9381C130.838 27.2327 130.803 27.5582 130.949 27.8295C131.236 28.3696 131.188 28.906 131.115 29.4618C130.965 30.6454 131.378 31.3292 132.729 31.5367C133.064 31.5877 133.25 31.7457 133.281 32.0131C133.316 32.2787 133.361 32.5433 133.405 32.8088C133.521 33.5012 133.659 34.1913 134.217 34.7733C134.542 35.1131 134.959 35.3092 135.529 35.2069C135.999 35.1217 136.387 34.75 136.439 34.2974C136.489 33.8881 136.531 33.4746 136.501 33.0667C136.418 31.9546 136.839 30.9566 137.522 29.9977C137.717 29.724 137.871 29.4085 137.926 29.0992C138.025 28.5357 138.059 27.9627 138.081 27.3926C138.121 26.3637 138.36 25.4015 139.427 24.6829L139.566 24.5634C140.524 23.545 141.067 22.4447 140.731 21.1579C140.474 20.1695 140.695 19.2062 141.034 18.254C141.1 18.0674 141.199 17.8875 141.284 17.7043C141.401 17.9237 141.401 18.1198 141.401 18.3158C141.402 18.9212 141.641 19.4356 142.313 19.7968C142.48 19.8873 142.622 20.011 142.758 20.1323C143.091 20.4317 143.267 20.7691 143.122 21.1698C142.987 21.5481 142.851 21.925 142.703 22.3015C142.414 23.0334 141.993 23.7511 141.854 24.4992C141.658 25.5599 141.725 26.6393 142.258 27.6653C142.367 27.8771 142.476 28.1041 142.494 28.3292C142.53 28.846 142.549 29.3666 142.506 29.8825C142.36 31.6205 142.971 33.1638 144.42 34.4992C144.797 34.8447 144.829 35.2078 144.69 35.6456C144.498 36.2467 144.371 36.8649 144.311 37.4821C144.244 38.145 144.597 38.6642 145.448 38.9184L145.565 39.014C145.565 39.351 145.57 39.7079 145.562 40.0634C145.556 40.5364 145.758 40.9447 146.219 41.2546C146.582 41.4996 146.954 41.7476 147.365 41.9394C147.784 42.1364 147.91 42.3886 147.85 42.7465C147.791 43.082 147.77 43.4208 147.741 43.7597C147.718 44.0443 147.809 44.2946 148.164 44.4383C148.492 44.5711 148.733 44.4169 148.978 44.2794L149.111 44.2732L149.199 44.3479C149.601 44.662 149.86 44.7148 150.217 44.5578C150.571 44.3998 150.645 44.1704 150.516 43.7697C150.439 43.5303 150.356 43.2766 150.379 43.0368Z" fill="#11B0C8"/>
<path d="M40.4143 45.0972C40.2799 44.4357 39.9307 43.839 39.3207 43.3421C38.5874 42.7406 38.1395 42.0448 38.0707 41.1992C37.9916 40.2274 37.273 39.5868 36.1359 39.2461C35.7622 39.1333 35.4965 38.9805 35.3185 38.7169C35.1056 38.4014 34.8626 38.0944 34.6852 37.7675C34.46 37.3534 34.0667 37.0746 33.5383 36.9832C32.9216 36.8756 32.6491 36.5849 32.5135 36.158C32.4626 36.0014 32.3945 35.8482 32.3638 35.6892C32.1564 34.6656 31.4347 33.9151 30.3031 33.3978C29.9417 33.2317 29.7619 33.0004 29.5913 32.7134C29.2452 32.1328 28.9291 31.5137 28.418 31.0283C27.6902 30.3368 26.7734 29.8043 25.4798 30.2007L25.3166 30.1655C25.1601 29.9113 25.0184 29.6277 24.8208 29.3698C24.3372 28.7444 24.0212 28.6888 23.2105 29.0514L23.0995 29.0566C23.0289 28.9438 22.954 28.8192 22.8737 28.6945C22.5963 28.2643 22.3477 27.8198 22.0317 27.4067C21.7488 27.0355 21.4064 26.699 20.7375 26.7233C20.5675 26.7295 20.3902 26.6062 20.0889 26.4968C20.4258 26.3155 20.6001 26.1951 20.8007 26.1184C21.426 25.8762 21.8986 25.525 22.1342 25.0139C22.2416 24.7836 22.441 24.656 22.7086 24.5918C23.0369 24.5142 23.3744 24.4447 23.7156 24.4214C24.633 24.3571 25.2417 23.9336 25.6879 23.3754C26.1481 22.8 26.4874 22.1694 26.6304 21.4894C26.7034 21.1382 26.7826 20.8184 27.2496 20.6047C27.4705 20.5038 27.608 20.2359 27.689 20.0232C27.7884 19.7524 27.8307 19.4597 27.8264 19.1784C27.8197 18.6892 27.9774 18.2804 28.4309 17.9164C29.2605 17.2544 29.4956 16.4363 29.3016 15.5383C29.1452 14.813 29.0458 14.1025 29.3937 13.3768C29.8073 12.5178 29.5434 11.7544 28.5972 11.1757C28.3075 10.9992 28.2001 10.8041 28.2498 10.5323C28.2799 10.3734 28.3008 10.2125 28.31 10.0517C28.3431 9.50106 28.3842 8.95045 28.3885 8.39841C28.3885 8.24708 28.3198 8.06813 28.2026 7.94726C27.3803 7.10064 26.7188 6.84175 25.5584 7.15584C25.3191 7.22056 25.0791 7.29242 24.8318 7.32193C24.4323 7.37285 24.2906 7.27291 24.2476 6.96072C24.2175 6.73039 24.2133 6.49625 24.1531 6.2702C24.0322 5.7962 23.6794 5.56587 23.0516 5.54064C22.8233 5.53065 22.5889 5.53922 22.3649 5.57348C21.6715 5.67913 21.075 5.58966 20.5117 5.21846C20.1159 4.95529 19.6274 4.77207 19.1586 4.58266C18.3437 4.25239 17.5048 3.95829 16.6954 3.62088C16.1959 3.41005 15.6774 3.29917 15.1153 3.28299C14.8403 3.27442 14.5575 3.3044 14.2881 3.26681C13.3952 3.14212 12.6741 3.39482 11.9899 3.80933C11.2278 4.27047 10.4515 4.71972 9.65437 5.14518C8.60748 5.70436 7.47468 5.98466 6.19829 5.66819L5.9289 5.62583C5.40975 5.49877 4.94091 5.60346 4.46472 5.77574C3.69704 6.05462 3.05823 6.45294 2.51269 6.94645C2.19236 7.23722 1.86713 7.3481 1.37253 7.1725C0.933151 7.01783 0.679113 7.08208 0.469858 7.34953C-0.029654 7.99009 -0.353049 9.04753 0.684022 9.8104C0.851549 9.93318 1.01907 10.0555 1.19642 10.1692C1.915 10.6304 2.01196 11.21 1.74686 11.8648C1.6315 12.1537 1.50386 12.4435 1.43513 12.7395C1.15592 13.9588 1.27864 15.0929 2.61947 15.9633C2.8993 16.1441 3.13862 16.3716 3.3626 16.5972C3.76332 17.0012 4.06585 17.4305 3.88359 17.9792C3.74614 18.3923 3.68722 18.8206 3.55222 19.2327C3.43808 19.581 3.43808 19.8951 3.70318 20.2064C3.79829 20.3168 3.86518 20.4757 3.84861 20.6037C3.80504 20.9383 3.8971 21.2395 4.08242 21.5356C4.28186 21.852 4.29781 22.1661 4.16894 22.5178C3.95723 23.0913 4.03886 23.649 4.55923 24.1316C4.78137 24.3372 4.98265 24.5546 5.20479 24.7602C5.53617 25.0648 5.69938 25.3875 5.54413 25.7972C5.36801 26.2593 5.46067 26.7005 5.72945 27.1445C6.30138 28.0891 6.67203 29.0909 6.67755 30.1379C6.67878 30.7313 6.7518 31.3528 6.2934 31.9034C5.90619 32.367 6.1271 32.8343 6.5229 33.1879C7.07274 33.68 7.32924 34.2587 7.60415 34.8464C7.73302 35.1243 7.70295 35.3613 7.50106 35.6074C6.89539 36.3479 6.86226 37.1426 7.10833 37.9773C7.28138 38.5641 7.62196 39.0866 8.03372 39.5806C8.32766 39.9333 8.54857 40.2978 8.63141 40.7085C8.70014 41.0578 8.87873 41.351 9.23587 41.5832C9.34878 41.6565 9.458 41.7807 9.47028 41.8902C9.54453 42.4717 9.7231 43.0452 9.5071 43.6415C9.28741 44.2473 9.46905 44.5695 10.1821 44.8988C10.6601 45.1191 10.8356 45.4323 10.8633 45.8244C10.8841 46.1271 10.8577 46.4326 10.8774 46.7353C10.9154 47.2697 11.1259 47.7527 11.6751 48.1106C11.9236 48.2729 12.1918 48.4385 12.5434 48.3233C12.9018 48.2086 13.0479 47.9593 13.0546 47.6761C13.0644 47.3387 13.0436 46.9975 13.0147 46.6596C12.965 46.0709 12.9926 45.5117 13.7732 45.1791L13.8751 45.1077C14.6937 44.4786 14.779 43.8175 14.2101 43.0356C13.7928 42.4603 13.602 41.8497 13.9751 41.1949C14.1224 40.9369 14.2445 40.6523 14.2703 40.3735C14.2936 40.1003 14.2617 39.7905 14.1095 39.5516C13.8143 39.0914 13.4253 38.6655 13.0589 38.2329C12.4833 37.5552 12.1581 36.8642 12.7772 36.0928L12.8625 35.9467C13.4504 35.1148 13.5026 34.2834 12.838 33.4601C12.6349 33.2084 12.6085 32.9671 12.8368 32.7134C13.2608 32.2471 13.1774 31.7802 12.846 31.3029C12.6496 31.0216 12.479 30.7256 12.3415 30.4248C12.0777 29.8495 12.317 29.5002 13.2001 29.257C13.5504 29.5535 13.9285 29.889 14.3261 30.2097C14.9183 30.6847 15.6546 30.8679 16.4677 30.688C17.0808 30.5529 17.4428 30.7499 17.7411 31.0992C18.0583 31.4718 18.3277 31.8682 18.653 32.2347C18.9125 32.5254 19.1954 32.8124 19.5256 33.0551C19.8704 33.3121 20.1392 33.2783 20.4841 33.0204C21.1241 32.5369 21.2616 32.5283 21.8728 33.0213C22.2078 33.295 22.5693 33.4901 23.0743 33.4435C23.4523 33.4073 23.6922 33.5301 23.842 33.7866C24.1617 34.3381 24.5054 34.883 24.7993 35.4422C25.1675 36.1451 25.7762 36.3669 26.6537 36.0795C26.7801 36.038 26.9041 35.9895 27.033 35.9495C27.5288 35.7944 27.5797 35.7863 27.8639 36.1589C28.2143 36.6182 28.534 37.0936 28.8279 37.5766C29.2225 38.2215 29.8705 38.6445 30.7462 38.7635C31.2788 38.8368 31.5593 39.031 31.7734 39.3665C31.8851 39.5426 32.0195 39.711 32.1306 39.8866C32.6473 40.6995 33.2321 41.458 34.4398 41.7598L34.6705 41.8749C35.2657 42.1943 35.8272 42.5255 35.8671 43.1646C35.9082 43.7999 36.2433 44.3729 36.5483 44.9526C36.7569 45.348 37.0606 45.6664 37.5522 45.871C37.9517 46.0386 38.2241 46.2874 38.3831 46.6244C38.5353 46.9418 38.72 47.2516 38.9133 47.5543C39.1839 47.974 39.6754 48.2353 40.0203 48.1644C40.3793 48.0911 40.5683 47.7851 40.5505 47.2602C40.5437 47.0303 40.3909 46.7743 40.4775 46.5754C40.7045 46.0657 40.5137 45.5831 40.4143 45.0972ZM19.4562 22.3774C19.3133 22.4478 19.1322 22.4769 18.9628 22.5054C18.5879 22.5735 18.1964 22.6025 17.8325 22.6963C17.4207 22.8029 17.0127 22.9371 16.6334 23.1032C16.3419 23.2321 16.0603 23.4035 15.8504 23.6029C15.5479 23.8912 15.192 24.0916 14.706 24.2434C14.5409 24.1359 14.3832 24.0088 14.1979 23.9122C13.3848 23.4867 12.8932 23.4563 12.2434 23.8346C12.066 23.9379 11.8586 24.0074 11.5082 24.1606C11.5745 23.8241 11.5923 23.6048 11.6653 23.3968C11.7322 23.2093 11.8697 23.038 11.9592 22.8547C12.2342 22.2922 12.1501 22.0571 11.488 21.7307C11.2161 21.5974 11.113 21.4442 11.1198 21.2077C11.1308 20.8507 11.1241 20.4929 11.121 20.135C11.1185 19.6077 10.8473 19.2132 10.2134 18.9757C9.78753 18.8158 9.75071 18.7006 9.85503 18.3342C9.92069 18.1105 9.97592 17.8802 10.0091 17.6518C10.1257 16.8803 9.62859 16.3435 8.89773 15.8862C8.77255 15.8081 8.64491 15.6601 8.6492 15.5464C8.66577 15.0001 8.43136 14.4537 8.7075 13.905C8.88178 13.5567 8.59766 13.2773 8.29268 13.0522C7.81464 12.7029 7.75818 12.2794 7.87662 11.8211C7.97419 11.4356 8.20248 11.319 8.70076 11.3728C8.83699 11.3889 8.97997 11.3909 9.11006 11.4208C10.2422 11.6864 11.1333 11.3528 11.9218 10.7517C12.0525 10.6518 12.19 10.5542 12.3176 10.4524C12.7508 10.1055 13.2847 9.98267 13.8898 10.0317C14.2801 10.0626 14.6642 10.135 15.0533 10.1511C15.5559 10.1726 16.059 10.1578 16.6193 10.1578C17.7184 11.7059 18.1896 11.891 19.8815 11.4137C20.2883 11.7321 20.7455 12.0209 20.4473 12.583C20.311 12.8419 20.435 13.1179 20.6725 13.3344C20.9996 13.6338 21.326 13.934 21.6844 14.2101C21.9274 14.3985 22.2244 14.5456 22.503 14.715C22.3244 14.9439 22.2391 15.0653 22.1391 15.1776C21.731 15.6344 21.65 15.9542 22.0937 16.3483C22.7067 16.8903 22.3852 17.4614 22.3496 18.0315L22.2631 18.1719C21.8261 18.5536 21.3806 18.9314 20.9456 19.3141C20.5142 19.6924 20.3853 20.165 20.2865 20.6413C20.2288 20.9226 20.2086 21.2096 20.1503 21.4918C20.0729 21.8554 19.8741 22.1752 19.4562 22.3774Z" fill="#11B0C8"/>
<path d="M219.547 22.0211C219.225 21.8998 218.915 21.9569 218.613 22.0583C217.834 22.3195 217.044 22.5656 216.287 22.8606C215.798 23.05 215.282 23.2609 214.914 23.5616C213.761 24.5053 212.102 24.8484 210.865 25.6822L210.742 25.7293C209.634 26.0753 208.548 26.4727 207.412 26.7506C206.421 26.9924 205.403 27.138 204.736 27.8732C204.72 27.6819 204.742 27.5263 204.81 27.3831C205.014 26.9624 204.92 26.575 204.625 26.2081C204.406 25.9354 204.158 25.6765 203.941 25.4029C203.836 25.272 203.707 25.1188 203.71 24.9779C203.721 24.6276 203.52 24.373 203.268 24.1041C203.105 23.9285 202.972 23.6911 202.964 23.4793C202.922 22.3747 202.928 21.2697 202.9 20.1661C202.887 19.6102 202.577 19.1781 201.948 18.8821C201.766 18.796 201.561 18.6465 201.507 18.4976C201.126 17.4183 200.287 16.4498 200.224 15.2943C200.216 15.172 200.169 15.0464 200.112 14.9312C199.66 14.0151 199.224 13.0938 198.731 12.1915C198.527 11.8184 198.211 11.4767 197.902 11.1455C197.784 11.0217 197.493 10.8737 197.358 10.9108C197.16 10.9627 196.94 11.1588 196.901 11.3192C196.829 11.6099 196.872 11.9188 196.887 12.2215C196.925 13.1452 196.973 14.0713 197.02 15.0107C196.269 15.1406 196.088 15.5285 196.131 15.9929C196.189 16.614 196.282 17.2317 196.373 17.8494C196.425 18.203 196.542 18.5528 196.556 18.9064C196.581 19.6022 196.566 20.2998 196.55 20.9956C196.534 21.7756 196.697 22.5294 197.13 23.2328C197.49 23.8229 197.714 24.432 197.751 25.0821C197.771 25.42 197.795 25.7598 197.781 26.0977C197.769 26.4318 197.925 26.6949 198.256 26.89C198.487 27.0257 198.751 27.1266 199.134 27.3055C198.835 28.1483 198.558 29.0121 198.218 29.862C197.893 30.6782 197.452 31.461 197.752 32.3605C197.89 32.7664 197.679 32.9325 197.157 33.0719C196.832 33.16 196.491 33.2161 196.17 33.3128C195.336 33.565 194.487 33.7967 193.685 34.1037C192.994 34.3688 192.954 34.7086 193.443 35.1759L193.548 35.2944L193.469 35.3943C193.314 35.469 193.154 35.5404 192.991 35.6051C191.948 36.0239 191.107 36.6264 190.363 37.3174C189.86 37.7857 189.851 38.1017 190.26 38.5795C190.737 39.1344 190.726 39.32 190.095 39.7616C189.329 40.3008 188.543 40.8238 187.755 41.3426C187.398 41.5777 187.095 41.8304 186.93 42.182C186.875 42.3005 186.742 42.4424 186.601 42.4819C185.766 42.717 185.243 43.1976 184.837 43.7758C184.475 44.2917 183.992 44.7114 183.316 44.9832C182.95 45.1293 182.552 45.2283 182.194 45.3839C180.591 46.0792 179.274 47.0595 177.965 48.0351C177.663 48.2593 177.487 48.5967 177.312 48.9022C177.129 49.2187 177.042 49.5575 177.464 49.8288C177.82 50.0567 178.244 50.0577 178.748 49.8278L179.03 49.6746C179.964 49.0664 180.883 48.4453 181.832 47.8519C182.184 47.6311 182.579 47.416 183.001 47.3075C183.825 47.0943 184.678 46.9415 185.53 46.794C186.45 46.6317 187.251 46.34 187.918 45.7965C188.805 45.0717 189.745 44.3859 190.667 43.6859C190.813 43.5755 190.971 43.4632 191.146 43.3823C191.742 43.1034 192.177 42.707 192.427 42.2201C192.87 41.3554 193.606 40.652 194.368 39.9587C194.71 39.6465 195.089 39.3552 195.408 39.0283C195.61 38.8213 195.795 38.5805 195.875 38.3306C196.127 37.5592 196.696 36.9943 197.542 36.5641C198.716 35.9654 199.867 35.3463 201.034 34.7404C201.545 34.4763 201.919 34.1303 202.196 33.7039C202.371 33.4365 202.593 33.1809 202.841 32.9496C203.551 32.2839 204.462 31.8727 205.538 31.6276C207.263 31.2345 208.489 30.3546 209.265 29.1072C209.469 28.7813 209.777 28.5609 210.151 28.3839C210.404 28.2621 210.68 28.164 210.959 28.0831C211.769 27.8466 212.459 27.473 213.107 27.0328C213.486 26.7749 213.887 26.5203 214.328 26.338C215.664 25.7907 216.842 25.0812 217.934 24.2821C218.57 23.8176 219.177 23.3265 219.769 22.8292C220.153 22.5132 220.044 22.2072 219.547 22.0211Z" fill="#11B0C8"/>
<path d="M107.346 31.6615C106.963 30.95 106.622 30.2372 106.684 29.4415C106.726 28.8927 106.666 28.3398 106.692 27.7901C106.713 27.3456 106.735 26.894 106.862 26.4638C107.089 25.7014 107.387 24.949 107.671 24.1966C107.805 23.8463 107.775 23.5137 107.481 23.2329C107.064 22.8312 107.019 22.3815 107.161 21.917C107.337 21.346 107.573 20.7849 107.768 20.2167C107.838 20.0135 107.918 19.7993 107.904 19.5923C107.883 19.2401 107.704 18.9137 107.253 18.7699C106.773 18.6153 106.343 18.759 106.012 19.046C105.786 19.243 105.55 19.4595 105.427 19.7013C105.21 20.1296 105.055 20.5802 104.912 21.0285C104.634 21.9075 104.38 22.7927 104.116 23.6741L104.024 23.8754C103.482 24.5231 103.295 25.2517 103.168 26.0007C103.103 26.389 102.838 26.6456 102.367 26.8616C101.686 27.1757 101.051 27.575 100.483 28.0066C99.9452 28.4145 99.5138 28.908 99.0382 29.3648C99.0517 29.0531 99.0303 28.7367 99.1002 28.434C99.3444 27.3837 99.628 26.3377 99.89 25.2873C100.02 24.7634 100.162 24.2366 100.247 23.7074C100.289 23.4313 100.285 23.1292 100.183 22.866C100.056 22.5409 99.8004 22.2397 99.2855 22.215C98.7952 22.1893 98.4602 22.3968 98.2239 22.7113C98.1442 22.8189 98.0742 22.9331 98.0134 23.0483C97.409 24.2104 96.8088 25.374 96.1657 26.6151C95.9516 25.8565 95.5515 25.3054 94.4543 25.5005C94.0695 25.0051 93.975 24.4907 93.8443 23.9867C93.74 23.587 93.4939 23.2548 93.1355 22.964C92.8582 22.7389 92.5065 22.7389 92.1739 22.8341C91.8346 22.9321 91.6069 23.1211 91.6069 23.4404C91.6069 23.7059 91.5535 23.9705 91.529 24.237C91.4873 24.6792 91.4191 25.1222 91.4161 25.5643C91.4142 26.0274 91.4504 26.4923 91.5192 26.9525C91.6216 27.6407 91.0798 28.0923 90.6146 28.6405C90.3851 28.2779 90.1563 27.9862 90.0102 27.6697C89.9114 27.4579 89.9556 27.21 89.8924 26.9853C89.7917 26.6379 89.6408 26.3001 89.5395 25.9527C89.4242 25.5553 89.3309 25.1536 89.2431 24.7543C89.2008 24.5607 89.2131 24.3617 89.1671 24.1695C88.9474 23.2429 88.6056 22.333 88.6013 21.3774C88.5994 21.079 88.5448 20.7716 88.446 20.4827C88.3331 20.1577 88.0214 19.9859 87.7029 20.0425C87.2954 20.1158 86.8855 20.2224 86.6658 20.526C86.443 20.8349 86.2356 21.1556 86.0791 21.4878C85.9141 21.8385 85.8165 22.2078 85.6932 22.57C85.6079 22.8236 85.425 22.9802 85.0623 22.9664C84.399 22.9431 84.0652 23.2653 83.8289 23.6798C83.6626 23.9739 83.5448 24.2846 83.3521 24.5683C82.8452 25.3216 82.7176 26.0873 83.1361 26.8897C83.2791 27.1633 83.3122 27.4427 83.1784 27.7239C82.7206 28.6919 82.5016 29.7298 81.7597 30.6174C81.613 30.793 81.4835 31.0057 81.4614 31.2108C81.4228 31.5568 81.3184 31.9861 81.5234 32.2459C81.8934 32.7075 81.9634 33.1658 81.9456 33.6684C81.9401 33.774 81.9591 33.8844 81.991 33.9868C82.0978 34.3146 82.4304 34.5493 82.7943 34.5645C83.1956 34.5792 83.4429 34.4193 83.5926 34.0167C83.7037 33.7226 83.8369 33.4514 84.1326 33.2277C84.4763 32.9655 84.5487 32.6205 84.38 32.2826C84.2437 32.0061 84.3468 31.8 84.5432 31.5892C84.6917 31.4307 84.869 31.2822 84.9856 31.1123C85.0985 30.9448 85.2176 30.754 85.2164 30.5741C85.2096 29.973 85.6257 29.5452 86.0736 29.0793C86.2301 29.1716 86.3234 29.2606 86.4431 29.2935C86.991 29.4396 87.1856 29.7917 87.3384 30.1724C87.5538 30.7173 87.7207 31.277 87.9894 31.8052C88.3576 32.5329 88.8001 33.2377 89.2174 33.9511L89.3873 34.1186C89.6156 34.3061 89.8832 34.357 90.2035 34.2728C90.6251 34.1647 90.8779 33.9425 90.881 33.606C90.8834 32.8946 90.8521 32.1817 90.8276 31.4693C90.8135 31.0709 90.7791 30.6712 90.7521 30.211C91.2369 30.4113 91.4277 30.6393 91.3866 30.9824C91.367 31.1409 91.4032 31.306 91.3719 31.4626C91.2467 32.0784 91.7634 32.4163 92.2826 32.7494C92.482 32.8765 92.7293 32.8784 92.9189 32.7418C93.4104 32.3863 93.8928 32.0218 93.7983 31.4221C93.7719 31.267 93.7664 31.0971 93.8161 30.9472C94.0069 30.3709 93.937 29.8169 93.6473 29.2735C93.551 29.0941 93.5086 28.9232 93.6528 28.7048C93.9873 28.9413 94.3364 29.1083 94.5414 29.3501C95.0237 29.9126 95.449 30.5051 95.87 31.0971C96.2026 31.5644 96.4842 32.0527 96.8064 32.5243C96.9752 32.7708 97.2255 32.9655 97.6238 32.9364C98.0276 32.9069 98.2982 32.7385 98.4111 32.4211C98.481 32.2221 98.5841 32.0303 98.686 31.8052L98.7756 31.8819L98.8032 32.0394C98.8591 32.7685 99.369 33.2172 100.23 33.4633C100.531 33.5484 100.825 33.6503 101.102 33.7707C102.229 34.2594 103.504 34.0776 104.308 33.3029C104.435 33.1815 104.554 33.0564 104.732 32.8765C104.808 33.1468 104.869 33.3524 104.919 33.5584C105.051 34.0662 105.371 34.4936 105.849 34.8462C106.3 35.1784 106.914 35.2031 107.431 34.9314C107.885 34.6916 108.125 34.3832 108.077 33.9387C107.99 33.1454 107.737 32.3911 107.346 31.6615ZM85.3949 26.8911C85.7944 26.0659 86.1712 25.2926 86.5461 24.5178L86.7247 24.553C86.7247 24.9599 86.6492 25.3773 86.7456 25.7709C86.8364 26.133 87.1125 26.469 87.3476 26.8916H85.3949V26.8911ZM103.364 30.9286C103.133 31.0776 102.958 31.2813 102.738 31.4455C102.362 31.7291 101.89 31.6786 101.816 31.3046C101.746 30.9586 101.867 30.5846 101.941 30.2272C102.014 29.8779 102.201 29.6275 102.699 29.4733C103.142 29.3325 103.492 29.0141 104.005 28.7029C104.12 29.5642 104.302 30.3242 103.364 30.9286Z" fill="#11B0C8"/>
<path d="M74.8325 15.1795C74.3392 15.2433 73.8231 15.2752 73.3653 15.418C72.8154 15.5883 72.2705 15.8153 71.8035 16.0966C70.4063 16.938 69.0415 17.8136 67.6743 18.686C67.3349 18.9034 67.0398 19.1709 66.5495 19.1342C66.126 19.1038 65.7842 19.2328 65.4713 19.4274C64.9687 19.7382 64.4821 20.0689 63.974 20.3754C63.7402 20.5158 63.488 20.6481 63.2173 20.7399C62.7626 20.8955 62.2876 21.0159 61.8151 21.152C61.4979 20.7185 61.4715 20.2659 61.782 19.7957C61.9084 19.6063 62.0152 19.4007 62.0594 19.1928C62.1895 18.5812 62.3674 17.9721 61.9053 17.3729C61.7667 17.194 61.8133 16.9266 61.7888 16.6976C61.7556 16.3974 61.8421 16.0542 61.6869 15.803C61.4261 15.3846 61.5218 15.0192 61.6936 14.628C61.7593 14.4757 61.8311 14.3243 61.8845 14.1702C62.1226 13.4891 62.1993 12.7991 62.0177 12.1033C61.8188 11.3319 60.9628 11.0911 60.1497 11.5694C60.003 11.655 59.857 11.7397 59.7238 11.8178C58.9077 11.6579 58.7512 11.675 58.3928 12.0881C58.232 12.2737 58.1136 12.5059 58.0798 12.7263C58.0344 13.0423 58.0964 13.3678 58.0878 13.689C58.0645 14.686 58.1756 15.7035 57.9602 16.6748C57.6804 17.934 57.3115 19.1933 56.7071 20.3982C56.5261 20.7594 56.4708 21.1587 56.3586 21.5399C56.253 21.9035 56.1757 22.2728 56.0358 22.6278C55.8173 23.1879 55.5375 23.7343 55.3203 24.2968C55.2448 24.4952 55.2405 24.7237 55.2736 24.9331C55.3288 25.2781 55.5933 25.5255 56.0223 25.6359C56.4083 25.7364 56.6899 25.5807 56.925 25.3623C57.2023 25.1015 57.4717 24.835 57.7558 24.5761C57.878 24.4652 58.024 24.3705 58.1596 24.2682L58.3228 24.3396C58.2265 24.6423 58.124 24.9459 58.0344 25.2519C57.9669 25.4756 57.8767 25.7021 57.8724 25.9281C57.8583 26.7591 57.7074 27.551 57.1348 28.2824C56.8955 28.5898 56.7599 29.0072 57.1667 29.2751C57.6104 29.5692 57.5582 29.89 57.4772 30.2417C57.2226 31.3481 56.9648 32.4527 56.6955 33.5568C56.6488 33.7486 56.5733 33.9404 56.4659 34.116C56.0953 34.7204 55.9689 35.369 55.7817 36.0134C55.5829 36.7058 55.9977 37.1446 56.5261 37.5805C56.8464 37.846 57.1673 37.8732 57.4901 37.6143C57.8037 37.364 58.1277 37.0699 58.2596 36.7496C58.5315 36.0852 58.8242 35.4328 59.2084 34.8032C59.3047 34.6433 59.3581 34.4643 59.4059 34.292C59.5943 33.6115 59.7717 32.9296 59.9539 32.2485C60.1258 31.6042 60.2988 30.9608 60.4952 30.2331C61.2285 30.4991 61.5832 30.1265 61.9649 29.7729C62.0502 29.692 62.2122 29.6616 62.3773 29.5916C62.5313 29.909 62.6092 30.1998 62.8043 30.4325C62.9995 30.6633 63.3155 30.8351 63.572 31.0369L63.7297 31.2111C64.3096 32.0434 64.9509 32.8639 65.0362 33.8376C65.0896 34.4424 65.4786 34.8755 66.0542 35.2334C66.7354 35.6564 67.1214 36.2275 67.292 36.86C67.5282 37.7271 68.0916 38.4528 68.7617 39.1319C69.0599 39.4346 69.201 39.7401 69.2532 40.1047C69.2962 40.403 69.3299 40.7247 69.5005 40.9846C69.7859 41.4205 70.0043 41.8517 70.0509 42.3461C70.0841 42.7073 70.4517 42.9224 70.8886 42.9277C71.3752 42.9324 71.6127 42.7754 71.7311 42.3652C71.7514 42.2966 71.7545 42.2243 71.7692 42.1177C72.4602 42.1267 72.8026 41.9844 72.8903 41.5733C73.0112 41.0103 73.0898 40.4397 72.805 39.8824C72.6688 39.6169 72.5577 39.3446 72.4423 39.0729C71.7667 37.4791 71.1169 35.8849 71.0046 34.184C70.9757 33.7824 70.6953 33.3607 70.4081 33.0076C69.9202 32.4113 69.5521 31.8074 69.4066 31.0964C69.209 30.1356 68.7021 29.7977 67.4669 29.6382C67.0029 29.5778 66.5826 29.4669 66.2899 29.1447C65.6265 28.4157 64.9442 27.6966 64.2734 26.9732C64.1783 26.8709 64.1059 26.7591 64.023 26.6515C63.7991 26.3636 63.5904 26.0685 63.3511 25.7892C62.8675 25.2214 63.1357 24.5533 63.9654 24.3063C64.4815 24.154 65.0012 24.0112 65.5161 23.858C66.9833 23.4221 68.0007 22.683 68.3818 21.4504C68.604 20.7356 69.0808 20.1293 70.0424 19.8481C70.2357 19.7915 70.4081 19.6939 70.5959 19.6277C71.5562 19.2832 72.2472 18.7293 72.6964 17.9935C72.8707 17.7089 73.1554 17.5248 73.4604 17.3244C74.109 16.8994 74.7067 16.4273 75.3081 15.961C75.4891 15.821 75.6063 15.6402 75.4609 15.427C75.3259 15.2305 75.1074 15.1429 74.8325 15.1795Z" fill="#11B0C8"/>
<path d="M177.736 38.3646C177.964 38.1195 178.038 37.832 177.927 37.5484C177.747 37.0901 177.546 36.6347 177.305 36.1921C176.91 35.4754 176.685 34.7635 176.848 33.9597C177.101 32.6938 176.74 31.4907 175.745 30.4618C175.32 30.0221 175.165 29.6052 175.258 29.0822C175.317 28.7505 175.313 28.4083 175.06 28.0961C174.483 27.3856 173.929 26.6656 172.932 26.2363C172.584 26.0874 172.596 25.7666 172.94 25.5891C173.149 25.4811 173.4 25.4249 173.621 25.3288C174.02 25.1575 174.441 25.0019 174.8 24.7867C175.249 24.5183 175.724 24.3299 176.281 24.2476C176.497 24.2157 176.704 24.1272 176.903 24.0443C177.576 23.7631 178.016 23.3124 178.401 22.8151C178.625 22.5253 178.705 22.2217 178.659 21.8923C178.629 21.6796 178.624 21.4597 178.549 21.2565C178.442 20.971 178.365 20.6374 178.122 20.4332C177.663 20.0444 177.368 19.5876 177.006 19.1578C176.786 18.8947 176.705 18.6915 176.942 18.3874C177.292 17.9419 177.155 17.5445 176.666 17.1867C176.125 16.7945 175.505 16.6175 174.766 16.7474C174.149 16.855 173.578 16.7422 173.033 16.5271C172.176 16.1882 171.628 16.2211 170.999 16.7707C170.36 17.3299 169.796 17.9429 169.203 18.533C169.11 18.6253 169.024 18.7238 168.916 18.8409C168.557 18.5853 168.586 18.2774 168.54 17.9833C168.435 17.3294 168.35 16.6717 168.181 16.0283C168.081 15.6462 167.748 15.4796 167.362 15.4777C166.941 15.4734 166.551 15.7076 166.423 16.0764C166.37 16.2234 166.393 16.3876 166.385 16.5442C166.364 17.0054 166.377 17.4689 166.316 17.9276C166.199 18.8128 165.949 19.6932 165.919 20.5793C165.889 21.5521 165.705 22.4924 165.439 23.4376C165.349 23.7579 165.397 24.1067 165.424 24.4408C165.458 24.871 165.789 25.1513 166.265 25.3545C166.859 25.6058 167 25.9184 166.747 26.4176C166.604 26.6999 166.41 26.9649 166.269 27.2481C166.026 27.734 165.985 28.2346 166.322 28.6996C166.686 29.2035 166.697 29.6866 166.492 30.2386C166.331 30.6731 166.266 31.1619 166.341 31.6083C166.438 32.1836 166.445 32.7442 166.356 33.312C166.318 33.5418 166.283 33.7793 166.321 34.0054C166.353 34.1852 166.449 34.3904 166.605 34.5217C167.192 35.0119 168.132 34.8953 168.465 34.2595C168.658 33.8902 168.735 33.4638 168.744 33.0631C168.758 32.4416 168.92 31.8743 169.248 31.3056C169.488 30.892 169.574 30.4195 169.685 29.9674C169.75 29.6947 169.731 29.411 169.747 29.2097C169.911 29.3035 170.114 29.4125 170.31 29.5291C171.242 30.0821 171.913 30.7992 172.486 31.5821C172.701 31.8748 172.951 32.1679 173.259 32.4011C173.918 32.9003 174.169 33.4866 174.125 34.1881C174.104 34.5222 174.107 34.8858 174.256 35.1899C174.542 35.7785 174.734 36.3772 174.887 36.993C175.03 37.557 175.316 38.0895 175.877 38.4959C176.467 38.9252 177.27 38.8666 177.736 38.3646ZM172.388 22.8617C172.21 23.1197 171.92 23.3296 171.653 23.5832C171.491 23.4947 171.346 23.4552 171.286 23.3767C171.019 23.0207 170.703 22.709 170.286 22.4434C170.134 22.3468 170.131 22.1112 170.046 21.9047C170.761 21.7757 171.157 21.4816 171.399 21.0153C171.809 20.2281 172.039 20.1467 173.415 20.2481C172.403 20.7773 172.411 21.4093 172.628 22.1179C172.698 22.3421 172.541 22.6395 172.388 22.8617Z" fill="#11B0C8"/>
<path d="M177.942 25.5336C177.414 25.6411 177.192 25.9253 177.297 26.3326C177.418 26.8057 177.788 27.0731 178.404 27.0308C178.942 26.9932 179.381 27.1421 179.856 27.282C180.572 27.4929 181.118 28.0125 182.013 27.9283C181.957 28.0658 181.943 28.1582 181.887 28.231C181.526 28.7069 181.393 29.217 181.371 29.7662C181.36 30.0156 181.203 30.2807 181.033 30.5034C180.807 30.8042 180.734 31.1044 180.851 31.4257C180.942 31.6822 181.048 31.9435 181.217 32.1733C181.415 32.447 181.426 32.6711 181.254 32.9671C180.887 33.6062 180.789 34.2711 181.243 34.9283C181.316 35.0349 181.374 35.1667 181.367 35.2843C181.316 36.049 181.396 36.8442 181.147 37.5695C180.799 38.577 180.769 39.5778 180.799 40.5924C180.813 41.0574 180.937 41.5214 181.311 41.9049C181.669 42.2714 182.115 42.2404 182.414 41.8454C182.482 41.7545 182.519 41.6484 182.561 41.5456C182.762 41.0369 182.961 40.5263 183.156 40.0128C183.258 39.7401 183.39 39.4683 183.434 39.1895C183.618 37.9878 183.794 36.7838 183.936 35.5793C184.014 34.9102 184.151 34.2711 184.669 33.7105C184.785 33.5839 184.889 33.424 184.905 33.2736C184.954 32.7601 185.046 32.239 184.796 31.7364C184.681 31.5066 184.695 31.2872 184.852 31.0702C185.326 30.4172 185.37 29.7182 185.255 28.9938C185.202 28.6636 185.208 28.3262 185.188 27.9926L185.356 27.8978C185.594 27.9845 185.879 28.0306 186.064 28.1634C186.854 28.7273 187.816 28.7849 188.779 28.6698C189.311 28.6046 189.711 28.6688 190.119 28.9072C190.647 29.217 191.253 29.3769 191.916 29.3969C192.849 29.4226 193.205 29.1742 193.248 28.4746C193.436 28.369 193.635 28.2767 193.808 28.1601C194.282 27.8393 194.326 27.4434 193.882 27.0907C193.665 26.917 193.381 26.7676 193.09 26.6829C192.707 26.571 192.291 26.5101 191.883 26.4687C191.59 26.4392 191.371 26.3621 191.177 26.1865C190.8 25.8401 190.296 25.6826 189.714 25.6749C189.279 25.6697 188.842 25.674 188.398 25.674C187.811 25.0477 187.631 25.003 186.539 25.1158C186.071 25.1624 185.59 25.2542 185.043 25.0686C185.154 24.7936 185.227 24.5133 185.378 24.2639C185.831 23.5144 186.137 22.7287 186.327 21.9215C186.534 21.0425 186.753 20.1721 187.289 19.3688L187.33 19.2665C187.449 18.6497 187.472 18.0563 186.79 17.5909C186.245 17.2211 186.233 17.1245 186.595 16.6405C186.965 16.146 187.367 15.6659 187.702 15.1586C187.897 14.8635 188.066 14.5342 188.11 14.2091C188.196 13.5562 187.618 13.1822 186.772 13.2869C186.015 13.3806 185.561 13.758 185.261 14.2767C185.045 14.6484 184.811 15.0139 184.582 15.3832C183.994 16.3293 183.375 17.2635 183.201 18.3323C183.139 18.7149 182.95 19.0866 182.784 19.455C182.527 20.0317 182.316 20.6152 182.331 21.2301C182.339 21.6498 182.221 22.0396 181.981 22.4169C181.657 22.9285 181.569 23.4611 181.716 24.0312C181.879 24.6703 181.623 24.8973 180.802 24.9002C180.354 24.9016 179.924 24.933 179.566 25.1667C179.252 25.3723 178.887 25.4489 178.485 25.4674C178.304 25.4751 178.118 25.4974 177.942 25.5336Z" fill="#11B0C8"/>
<path d="M52.9694 30.0295C52.1464 30.4888 51.6095 30.4935 50.7756 30.0409C50.5301 29.9082 50.2975 29.7602 50.049 29.6321C49.6139 29.4061 49.1574 29.3314 48.7112 29.6131C48.4406 29.783 48.1657 29.7782 47.8773 29.6631C47.3925 29.468 46.939 29.5427 46.507 29.7554C46.1756 29.9162 45.8682 30.108 45.5319 30.2598C45.068 30.4664 44.6372 30.2756 44.6311 29.8625C44.628 29.7235 44.6642 29.5746 44.7366 29.448C44.8851 29.1881 45.0606 28.9378 45.241 28.6903C45.4675 28.3815 45.7547 28.0926 45.9363 27.7685C46.3523 27.0233 46.2002 26.6544 45.3607 26.2228C45.2662 26.1738 45.1699 26.1272 45.0171 26.0505C45.1367 25.36 45.708 24.9541 46.3125 24.561C47.1231 24.0346 47.9417 23.515 48.7217 22.962C49.1586 22.6522 49.4482 22.2643 49.1439 21.7808C49.5796 21.5676 50.0177 21.4867 50.4884 21.49C50.8799 21.4924 51.2714 21.4933 51.6629 21.4814C52.6521 21.4519 53.5149 21.2078 54.1218 20.5668C54.3789 20.2941 54.498 19.9828 54.2813 19.6621C54.0837 19.367 53.7432 19.2328 53.3118 19.2476C52.5545 19.2728 51.7967 19.2818 51.0425 19.3337C50.7001 19.358 50.4245 19.3604 50.1815 19.1334C49.9146 18.8854 49.544 18.8031 49.1248 18.8236C48.0847 18.8759 47.1452 19.1462 46.3499 19.664C46.1044 19.8239 45.8608 20.0847 45.8209 20.3203C45.7234 20.9146 45.303 21.1916 44.5955 21.2906L44.2672 21.3691C42.8907 21.6751 42.436 22.1087 42.2483 23.1951C42.1716 23.6492 42.093 24.1379 41.8236 24.53C41.4388 25.084 41.237 25.6432 41.1934 26.2575C41.1658 26.664 40.9627 27.0142 40.6055 27.3164C40.357 27.5263 40.0753 27.73 39.9109 27.9784C39.6936 28.3034 39.5071 28.6604 39.431 29.0201C39.3346 29.4684 39.7126 29.7616 40.295 29.7958C40.3993 29.802 40.5037 29.7968 40.6742 29.7968C40.5245 29.9962 40.3748 30.1366 40.3036 30.2998C40.1649 30.6158 40.0029 30.9404 39.9673 31.2668C39.9109 31.778 40.2238 32.0169 40.8958 32.0573C41.2167 32.0778 41.5401 32.0663 41.8629 32.0711C42.5336 32.084 42.7435 32.2558 42.6134 32.7645C42.495 33.2342 42.6158 33.6392 43.1178 33.9052C43.5805 34.1532 43.6756 34.4772 43.6867 34.868C43.6934 35.1159 43.7265 35.37 43.8155 35.6075C43.883 35.7864 44.0229 35.9659 44.188 36.1039C44.4709 36.3447 44.8667 36.3713 45.1705 36.1534C45.4325 35.963 45.6663 35.7303 45.8381 35.4852C46.1001 35.1102 46.275 34.6971 46.5315 34.3202C46.7347 34.0242 46.9721 33.7344 47.2514 33.4793C47.4944 33.2566 47.7981 33.1543 48.2307 33.2813C48.4946 33.3589 48.8696 33.308 49.1512 33.2247C49.4881 33.1257 49.8078 32.9582 50.0772 32.7712C50.5454 32.4423 51.0443 32.3514 51.6635 32.4314C53.0853 32.6146 54.393 31.886 54.6207 30.7843C54.6686 30.5573 54.6072 30.2722 54.4575 30.0771C54.1365 29.6616 53.6217 29.6655 52.9694 30.0295Z" fill="#11B0C8"/>
<path d="M163.007 27.0992C162.503 26.6276 162.379 26.176 162.718 25.6258C162.934 25.2723 163.156 24.9129 163.289 24.5379C163.621 23.6176 163.596 22.71 162.999 21.8396C162.875 21.6578 162.815 21.437 162.788 21.2295C162.725 20.7874 162.53 20.4195 162.107 20.0973C161.359 19.5263 160.554 19.0499 159.55 18.7763C158.169 18.4012 156.885 18.5259 155.816 19.2897C155.13 19.7809 154.6 20.4019 153.988 20.9568C153.799 21.1281 153.593 21.3042 153.351 21.4232C152.281 21.9505 151.447 22.612 151.239 23.6261C151.115 24.2196 150.847 24.734 150.329 25.208C149.665 25.8172 149.611 26.7333 150.182 27.3015C150.937 28.052 151.073 28.881 150.919 29.7804C150.858 30.1326 150.829 30.4886 150.777 30.9183C150.836 31.2376 150.854 31.635 150.993 32.0057C151.153 32.4359 151.596 32.662 152.086 32.5649C152.659 32.4497 153.057 32.6553 153.49 32.8657C153.835 33.0341 154.192 33.1917 154.566 33.3168C154.785 33.3915 154.94 33.4705 155.056 33.6461C155.426 34.2077 155.879 34.3947 156.695 34.2724C157.322 34.1777 157.92 33.9912 158.579 34.0868C158.724 34.1082 158.912 34.0645 159.044 34.004C159.714 33.6956 160.481 33.4563 161.013 33.0398C161.964 32.297 162.832 31.477 163.621 30.6247C164.092 30.1159 164.439 29.5149 164.22 28.8158C164.01 28.1533 163.542 27.6037 163.007 27.0992ZM157.978 28.9124C158.318 29.4587 158.297 29.4678 158.228 30.0055C157.803 30.0374 157.357 30.0707 156.96 30.0983C156.629 29.7 156.336 29.3431 156.039 28.9895C155.786 28.6935 155.472 28.4608 154.978 28.4793C154.615 28.4917 154.49 28.3261 154.431 28.0957C154.368 27.8511 154.316 27.6046 154.252 27.3605C154.069 26.6757 154.276 26.0756 154.952 25.6111C155.613 25.1571 155.878 24.6364 155.729 23.9459C155.611 23.4005 156.107 23.0755 156.705 22.8485C156.602 23.1916 156.489 23.5338 156.403 23.8788C156.224 24.5803 156.601 25.0933 157.331 25.4788C157.502 25.5692 157.69 25.6387 157.86 25.7305C158.299 25.9647 158.388 26.1627 158.221 26.5557C158.142 26.7413 158.03 26.9193 157.933 27.1016C157.612 27.7098 157.598 28.3075 157.978 28.9124Z" fill="#11B0C8"/>
<path d="M36.5451 24.141C36.5193 23.47 36.6678 22.829 36.974 22.2032C37.201 21.7406 37.3189 21.2518 37.0305 20.795C36.7101 20.2877 36.6359 19.7808 36.7641 19.2397V19.0256C36.7279 18.6154 36.4782 18.415 35.9468 18.3765C35.473 18.3446 35.0373 18.4279 34.636 18.6354C34.4961 18.7086 34.3108 18.7781 34.1512 18.7705C33.3148 18.731 33.0031 18.9109 33.1086 19.5362C33.2215 20.2134 33.1172 20.8488 32.8122 21.4769C32.7637 21.5759 32.7515 21.6849 32.7226 21.7901C32.6183 22.1746 32.6864 22.503 33.2074 22.6848C33.5388 22.8009 33.6155 23.0288 33.559 23.2663C33.5057 23.4905 33.386 23.7065 33.2761 23.9192C33.0896 24.2838 32.8589 24.635 32.6981 25.0048C32.4354 25.613 32.5171 26.1712 33.2228 26.5933C33.4989 26.7584 33.6419 26.9745 33.6265 27.2405C33.5965 27.7735 33.5946 28.3094 33.5001 28.8357C33.4369 29.196 33.3504 29.5463 33.5566 29.8841C33.7443 30.1911 33.775 30.5033 33.6787 30.8226C33.5621 31.2148 33.6676 31.566 33.9481 31.8915C34.2021 32.1846 34.2942 32.5073 34.2819 32.8561C34.2739 33.1769 34.2807 33.4991 34.2807 33.8203H34.2617C34.2617 34.1953 34.2469 34.5713 34.266 34.9463C34.2893 35.3998 34.4194 35.8343 34.8428 36.1746C35.311 36.5496 35.8707 36.5053 36.229 36.0689C36.3235 35.9495 36.4119 35.81 36.4309 35.6734C36.4929 35.2508 36.5862 34.8201 36.5463 34.3995C36.4542 33.3806 36.5862 32.405 37.2207 31.4912C37.3293 31.338 37.3624 31.1538 37.4434 30.9858C37.7883 30.2891 37.6809 29.6214 37.2348 28.9747L37.1704 28.8795C36.9452 28.5326 36.9531 28.1999 37.228 27.8635C37.449 27.5932 37.6153 27.2934 37.8478 27.0283C38.3737 26.4325 38.2995 25.6615 37.2747 25.1956C36.7046 24.94 36.5622 24.5926 36.5451 24.141Z" fill="#11B0C8"/>
<path d="M33.8976 16.4453C34.4364 16.7861 35.0635 16.9098 35.7078 16.7285C36.3724 16.5419 36.6927 16.1093 36.7449 15.5654C36.8149 14.8349 36.9492 14.1187 37.1763 13.4043C37.4193 12.6353 36.8155 12.1589 35.7078 12.2779C35.7667 12.0204 35.8269 11.8158 35.8576 11.6078C35.9539 10.9925 35.3685 10.419 34.6732 10.4809C34.143 10.528 33.6497 10.6789 33.2735 11.003C32.8531 11.3651 32.7065 11.931 33.0513 12.3379C33.3606 12.6976 33.2698 12.9865 33.0348 13.3244C32.7942 13.6685 32.5666 14.0254 32.4193 14.3961C32.2229 14.9001 32.3051 15.3922 32.8464 15.7696C33.1863 16.0046 33.5459 16.2226 33.8976 16.4453Z" fill="#11B0C8"/>
<path d="M190.834 44.8079V44.9107H190.453V45.6792H190.299V44.9107H189.918V44.8079" fill="#11B0C8"/>
<path d="M190.936 44.8079H191.152L191.478 45.5441L191.801 44.8079H192.016V45.6792H191.874V45.1695L191.875 45.0753V44.9444L191.552 45.6792H191.402L191.071 44.9444V44.9701L191.08 45.0682V45.6792H190.936" fill="#11B0C8"/>
</svg>
