<svg id="Capa_1" data-name="Capa 1" xmlns="http://www.w3.org/2000/svg" viewBox="0 0 259.14 367.35"><defs><style>.cls-1{fill:#87f54e;}.cls-2{fill:#fff;}.cls-3{fill:#99ff9b;}.cls-4{fill:#65ecff;}.cls-5{fill:#e01700;}</style></defs><title>pikle-rick-vectorize</title><path class="cls-1" d="M145.49,411.19a50.05,50.05,0,0,1,6.4-63A399.35,399.35,0,0,0,214.22,267c24.25-41.41,42-87.64,52.82-137.39A64.5,64.5,0,1,1,393.1,157c-13.68,63.09-36.42,122-67.57,175.24a537,537,0,0,1-66.7,90.93c-31.11,34-85.95,29.63-111.3-8.88Z" transform="translate(-135.45 -78.81)"/><circle class="cls-2" cx="173.62" cy="57.51" r="19"/><path d="M309.07,155.7a19.38,19.38,0,1,1,19.38-19.37A19.39,19.39,0,0,1,309.07,155.7Zm0-38a18.63,18.63,0,1,0,18.63,18.63A18.65,18.65,0,0,0,309.07,117.7Z" transform="translate(-135.45 -78.81)"/><circle class="cls-2" cx="209.62" cy="76.51" r="19"/><path d="M345.07,174.7a19.38,19.38,0,1,1,19.38-19.37A19.39,19.39,0,0,1,345.07,174.7Zm0-38a18.63,18.63,0,1,0,18.63,18.63A18.65,18.65,0,0,0,345.07,136.7Z" transform="translate(-135.45 -78.81)"/><path class="cls-3" d="M169.79,379c-2.06,1.93-23.9,37.06.08,28s40-15.11,47.92-28.13,22-11.06,26.94-25.07,13.87-54.06,31.84-65.1,36.88-40.11,40.84-54.12,20.93-24,20.93-24l-56.07-26.85s-9.84,60-21.79,79.05S197.72,353,169.79,379Z" transform="translate(-135.45 -78.81)"/><path class="cls-4" d="M370.08,140.33a5,5,0,0,1-4.48-2.77c-7.08-14.15-11.65-20-20.4-26.14-6.75-4.72-22.28-3.12-27.19-2.18a5,5,0,1,1-1.87-9.82c2.36-.45,23.4-4.17,34.8,3.81s16.65,16,23.6,29.86a5,5,0,0,1-4.46,7.24Z" transform="translate(-135.45 -78.81)"/><path d="M370.07,140.7a5.36,5.36,0,0,1-4.81-3c-7-14.09-11.59-19.92-20.27-26-6.64-4.65-22-3-26.91-2.12a5.4,5.4,0,0,1-6.29-4.28,5.37,5.37,0,0,1,4.28-6.28c2.37-.46,23.56-4.19,35.08,3.87s16.75,16,23.73,30a5.38,5.38,0,0,1,.29,4.11,5.38,5.38,0,0,1-5.09,3.67h0Zm-40-32.87c5.67,0,11.76.75,15.38,3.29,8.8,6.16,13.4,12,20.51,26.28a4.62,4.62,0,0,0,4.14,2.55h0a4.49,4.49,0,0,0,2.06-.49,4.62,4.62,0,0,0,2.07-6.2c-6.92-13.84-12.2-21.82-23.49-29.72s-32.17-4.2-34.51-3.76a4.64,4.64,0,0,0-3.68,5.41,4.63,4.63,0,0,0,5.41,3.68A71.37,71.37,0,0,1,330,107.83Z" transform="translate(-135.45 -78.81)"/><path d="M348,207.78a15,15,0,0,1-14.46,11.05,15.2,15.2,0,0,1-3.92-.52h0l-1-.23c-.79-.17-1.78-.36-2.81-.56l-2.07-.4-1-.2q-1.07-.21-2.22-.48l-1-.23c-.65-.15-1.33-.31-2-.49l-.81-.22-.1,0-.85-.23c-1.71-.48-3.52-1-5.4-1.73l-.87-.32-.18-.07c-.29-.11-.59-.22-.89-.35q-2.61-1-5.38-2.36l-.85-.43-.26-.13-.78-.41-.8-.43c-1.51-.82-2.95-1.65-4.33-2.47l-.77-.46-1.09-.67-.76-.49c-1.73-1.09-3.35-2.2-4.88-3.32l-.69-.51-.75-.58q-2.3-1.75-4.3-3.6l-.55-.51c-.47-.45-.94-.9-1.39-1.35l-.52-.54a50.29,50.29,0,0,1-3.82-4.36c-.11-.14-.22-.28-.31-.42a52.26,52.26,0,0,1-3.52-5.17A15,15,0,0,1,291.42,163a14.62,14.62,0,0,1,5.42,3.91,8.86,8.86,0,0,1,.67.82,14,14,0,0,1,.92,1.35,23.78,23.78,0,0,0,3.08,4.11c.53.58,1.13,1.16,1.79,1.76a41.2,41.2,0,0,0,4.88,3.75l.48.32c1.5,1,3.21,2,5.17,3.11l.92.5.28.15a40.59,40.59,0,0,0,5.85,2.58c.55.2,1.09.38,1.62.55,1.92.6,3.77,1.05,5.55,1.43l1.49.3,1.95.38c1.38.26,2.7.52,4,.82.69.14,1.36.31,2,.49A15,15,0,0,1,348,207.78Z" transform="translate(-135.45 -78.81)"/><path d="M333.58,219.33a15.54,15.54,0,0,1-4-.52l-.11,0c-.25-.07-.57-.15-.93-.22-.72-.16-1.6-.33-2.53-.51l-.27-.05-1.24-.24-.83-.16-.84-.17-.16,0c-.71-.14-1.46-.3-2.23-.49l-.81-.18-.19,0c-.66-.15-1.34-.31-2-.49l-.82-.22-.76-.21-.18,0c-1.86-.52-3.68-1.11-5.44-1.74l-.8-.3-.41-.15c-.25-.1-.5-.19-.76-.31-1.69-.65-3.47-1.43-5.4-2.36l-.65-.34-.2-.1-.14-.07-.1-.05c-.29-.14-.55-.28-.81-.42l-.3-.16-.51-.28c-1.36-.73-2.78-1.54-4.34-2.47l-.61-.36-.17-.1-1.09-.68c-.27-.16-.52-.33-.78-.5-1.63-1-3.29-2.15-4.89-3.33l-.46-.34-.24-.17-.76-.59c-1.51-1.16-3-2.38-4.33-3.62l-.55-.52c-.52-.49-1-.93-1.4-1.36-.19-.18-.36-.37-.53-.55a47.35,47.35,0,0,1-3.85-4.4,4.84,4.84,0,0,1-.34-.45,52.81,52.81,0,0,1-3.53-5.19,15.49,15.49,0,0,1,19.34-22.23,15.19,15.19,0,0,1,5.6,4c.24.26.47.55.7.85a15.42,15.42,0,0,1,.94,1.39,22.92,22.92,0,0,0,3,4c.48.52,1,1.07,1.76,1.73a39.82,39.82,0,0,0,4.82,3.7l.47.32c1.52,1,3.2,2,5.15,3.09l.91.5.29.15a40.5,40.5,0,0,0,5.77,2.55l1.6.54c1.68.52,3.43,1,5.51,1.42l1.94.39,1.48.29c1.28.24,2.66.5,4,.82.69.14,1.37.31,2,.49a15.52,15.52,0,0,1,10.87,19h0A15.53,15.53,0,0,1,333.58,219.33Zm-3.79-1.51h0a14.47,14.47,0,0,0,17.77-10.17h0a14.52,14.52,0,0,0-10.17-17.81c-.66-.18-1.32-.35-2-.48-1.36-.32-2.72-.58-4-.82l-1.5-.29-1.95-.39c-2.11-.45-3.89-.91-5.6-1.45-.54-.17-1.08-.35-1.64-.55a41.31,41.31,0,0,1-5.92-2.61l-.28-.15-.91-.5c-2-1.11-3.68-2.13-5.21-3.13l-.49-.33a41.67,41.67,0,0,1-4.93-3.79c-.75-.68-1.33-1.25-1.83-1.8a24.37,24.37,0,0,1-3.14-4.19,14.18,14.18,0,0,0-.88-1.3,8.39,8.39,0,0,0-.65-.78,14.15,14.15,0,0,0-5.24-3.79,14.49,14.49,0,0,0-18.09,20.8,49.35,49.35,0,0,0,3.49,5.12c.1.15.19.27.28.39a51.08,51.08,0,0,0,3.81,4.35l.51.53c.43.43.88.86,1.33,1.29l.6.56c1.34,1.23,2.77,2.43,4.26,3.57l.75.58.24.17.44.33c1.6,1.17,3.23,2.28,4.86,3.3.26.18.5.34.75.49l1.1.67.16.1.59.35c1.56.93,3,1.73,4.32,2.47l.5.27.3.16.77.4.14.07.31.16.67.34c1.88.91,3.63,1.68,5.32,2.33l.73.29.16.06.11,0,0,.52.18-.46.78.28c1.74.63,3.55,1.21,5.38,1.73l.18.05.65.17,0,.52.14-.48.8.21c.67.18,1.35.34,2,.49l.2,0,.8.18c.77.18,1.5.34,2.21.48l.16,0,.82.17.83.16L326,217l.27,0c.94.18,1.82.35,2.55.51.35.07.66.15.92.22Z" transform="translate(-135.45 -78.81)"/><path d="M311.57,135.45H309l1.83-1.83a.37.37,0,0,0-.53-.53l-1.83,1.83v-2.59a.38.38,0,0,0-.38-.38.37.37,0,0,0-.37.38v2.59l-1.84-1.83a.37.37,0,0,0-.53,0,.39.39,0,0,0,0,.53l1.84,1.83h-2.6a.38.38,0,0,0,0,.75h2.6L305.33,138a.38.38,0,0,0,.27.64.38.38,0,0,0,.26-.11l1.84-1.84v2.6a.37.37,0,0,0,.37.37.38.38,0,0,0,.38-.37v-2.6l1.83,1.84a.39.39,0,0,0,.27.11.38.38,0,0,0,.26-.11.37.37,0,0,0,0-.53L309,136.2h2.59a.38.38,0,1,0,0-.75Z" transform="translate(-135.45 -78.81)"/><path d="M348.57,154.45H346l1.83-1.83a.37.37,0,0,0-.53-.53l-1.83,1.83v-2.59a.38.38,0,0,0-.38-.38.37.37,0,0,0-.37.38v2.59l-1.84-1.83a.37.37,0,0,0-.53,0,.39.39,0,0,0,0,.53l1.84,1.83h-2.6a.38.38,0,0,0,0,.75h2.6L342.33,157a.38.38,0,0,0,.27.64.38.38,0,0,0,.26-.11l1.84-1.84v2.6a.37.37,0,0,0,.37.37.38.38,0,0,0,.38-.37v-2.6l1.83,1.84a.39.39,0,0,0,.27.11.38.38,0,0,0,.26-.11.37.37,0,0,0,0-.53L346,155.2h2.59a.38.38,0,1,0,0-.75Z" transform="translate(-135.45 -78.81)"/><path class="cls-2" d="M286.36,200.5a50.29,50.29,0,0,1-3.82-4.36c-.11-.14-.22-.28-.31-.42,2.5-1.42,4.84-1.73,5.76-.61S288.17,198.38,286.36,200.5Z" transform="translate(-135.45 -78.81)"/><path d="M286.38,201.05l-.29-.29a51.55,51.55,0,0,1-3.84-4.39,3.37,3.37,0,0,1-.33-.45l-.22-.33.35-.2c2.76-1.57,5.2-1.77,6.23-.52s.36,3.53-1.63,5.87Zm-3.59-5.21,0,0a49.38,49.38,0,0,0,3.53,4.07c1.5-1.88,2.06-3.74,1.36-4.6S285,194.68,282.79,195.84Z" transform="translate(-135.45 -78.81)"/><path class="cls-2" d="M295.84,166.94c-2.75,2.44-5.75,3.43-7,2.22s-.39-3.63,1.54-6.13A14.62,14.62,0,0,1,295.84,166.94Z" transform="translate(-135.45 -78.81)"/><path d="M290.33,170a2.34,2.34,0,0,1-1.71-.62c-1.22-1.21-.62-3.88,1.5-6.62l.18-.23.27.11a15.05,15.05,0,0,1,5.55,4l.25.28-.28.25C294,169,291.9,170,290.33,170Zm.21-6.55c-1.68,2.28-2.27,4.52-1.39,5.4s3.66.12,6.16-2A14.2,14.2,0,0,0,290.54,163.49Z" transform="translate(-135.45 -78.81)"/><path class="cls-2" d="M300.51,173.22c-2.66,2.23-5.47,3.1-6.63,1.94s-.1-4.54,2.63-7.4a14,14,0,0,1,.92,1.35A23.78,23.78,0,0,0,300.51,173.22Z" transform="translate(-135.45 -78.81)"/><path d="M295.33,176a2.34,2.34,0,0,1-1.71-.62c-1.44-1.44-.32-4.85,2.62-7.92l.3-.32.27.35a14.06,14.06,0,0,1,.94,1.38,22.8,22.8,0,0,0,3,4.05l.26.29-.3.25A9.32,9.32,0,0,1,295.33,176Zm1.15-7.7c-2.35,2.6-3.4,5.49-2.33,6.55s3.4.21,5.82-1.71a24,24,0,0,1-2.86-3.88Q296.83,168.82,296.48,168.34Z" transform="translate(-135.45 -78.81)"/><path class="cls-2" d="M307.18,178.73A41.2,41.2,0,0,1,302.3,175q-.26.22-.51.48c-2.93,2.93-4.23,6.38-2.91,7.7s4.2.22,6.94-2.21h0q.38-.31.75-.69a14.8,14.8,0,0,0,1.08-1.2Z" transform="translate(-135.45 -78.81)"/><path d="M300.33,184a2.34,2.34,0,0,1-1.71-.62c-1.5-1.49-.22-5.1,2.91-8.23.17-.17.35-.34.52-.49l.26-.23.24.23a40.15,40.15,0,0,0,4.84,3.71l.82.55-.26.32a15.22,15.22,0,0,1-1.1,1.23,10,10,0,0,1-.78.71C304,183,301.9,184,300.33,184Zm2-8.56-.24.24c-3,3-3.94,6.14-2.91,7.17s3.85.06,6.42-2.22c.26-.22.5-.45.75-.69s.54-.57.79-.85L307,179A42.38,42.38,0,0,1,302.3,175.48Z" transform="translate(-135.45 -78.81)"/><path class="cls-2" d="M313.07,182.18a41.4,41.4,0,0,1-5.34-3.07c-.15.17-.29.35-.44.54-2.52,3.3-3.35,6.89-1.86,8s4.19-.34,6.58-3.11h0c.22-.24.44-.5.65-.78a13.22,13.22,0,0,0,.91-1.34Z" transform="translate(-135.45 -78.81)"/><path d="M306.54,188.39a2.18,2.18,0,0,1-1.34-.42c-.84-.65-1.09-1.92-.71-3.58a13.65,13.65,0,0,1,2.5-5c.15-.2.3-.39.46-.57l.22-.25.27.19a41.16,41.16,0,0,0,5.29,3l.89.44-.21.35A15.16,15.16,0,0,1,313,184c-.22.29-.45.56-.67.81C310.34,187.07,308.15,188.39,306.54,188.39Zm1.26-8.78-.21.27a12.78,12.78,0,0,0-2.37,4.68c-.31,1.34-.15,2.37.43,2.81,1.16.89,3.83-.45,6.08-3.05.23-.26.44-.51.64-.78s.47-.64.67-.95l-.14-.07A42.3,42.3,0,0,1,307.8,179.61Z" transform="translate(-135.45 -78.81)"/><path class="cls-2" d="M319.88,185.39c-1.9,2.44-4.12,3.72-5.45,3s-1.31-2.94-.4-5.54A40.59,40.59,0,0,0,319.88,185.39Z" transform="translate(-135.45 -78.81)"/><path d="M315.31,188.94a2,2,0,0,1-1.06-.27c-1.37-.78-1.59-3.08-.57-6l.14-.41.39.21A39.15,39.15,0,0,0,320,185l.49.18-.32.41C318.52,187.75,316.72,188.94,315.31,188.94Zm-1.06-5.59c-.72,2.28-.58,4.13.37,4.67s2.91-.41,4.64-2.46A41.92,41.92,0,0,1,314.25,183.35Z" transform="translate(-135.45 -78.81)"/><path class="cls-2" d="M327.05,187.37c-1.69,1.79-3.48,2.64-4.62,2-.87-.5-1.16-1.78-.93-3.41C323.42,186.54,325.27,187,327.05,187.37Z" transform="translate(-135.45 -78.81)"/><path d="M323.31,190a2.06,2.06,0,0,1-1.07-.28c-1-.56-1.37-1.91-1.11-3.79l.06-.43.42.13c1.69.52,3.44,1,5.52,1.42l.65.14-.46.48C325.9,189.14,324.47,190,323.31,190Zm-1.49-3.52c-.11,1.3.18,2.23.8,2.59.83.48,2.24-.08,3.68-1.43C324.66,187.22,323.21,186.85,321.82,186.43Z" transform="translate(-135.45 -78.81)"/><path class="cls-2" d="M334.49,188.87c-1.8,2.13-3.82,3.19-5.06,2.48-.91-.52-1.19-1.92-.89-3.68l1.95.38C331.87,188.31,333.19,188.57,334.49,188.87Z" transform="translate(-135.45 -78.81)"/><path d="M330.29,191.94a2,2,0,0,1-1-.27c-1-.58-1.42-2.07-1.08-4.07l.07-.38.83.17,1.49.29c1.28.24,2.65.51,4,.82l.59.14-.39.47C333.24,190.92,331.6,191.94,330.29,191.94Zm-1.44-3.83c-.18,1.46.1,2.53.77,2.91.95.54,2.58-.23,4.17-1.93-1.15-.25-2.29-.47-3.37-.68l-1.49-.28Z" transform="translate(-135.45 -78.81)"/><path class="cls-2" d="M287.12,200.5q-2.3-1.75-4.3-3.6l-.55-.51c1.71-1.82,3.52-2.68,4.66-2C288.25,195.12,288.26,197.66,287.12,200.5Z" transform="translate(-135.45 -78.81)"/><path d="M287.29,201.09l-.4-.3c-1.51-1.15-3-2.37-4.32-3.62l-.56-.51-.27-.26.26-.27c1.92-2,3.83-2.83,5.12-2.1,1.48.86,1.62,3.45.35,6.61Zm-4.48-4.72a3.07,3.07,0,0,0,.26.25c1.23,1.12,2.53,2.22,3.88,3.27.9-2.5.83-4.61-.21-5.21C285.86,194.18,284.34,194.84,282.81,196.37Z" transform="translate(-135.45 -78.81)"/><path class="cls-2" d="M293.44,204.91c-1.73-1.09-3.35-2.2-4.88-3.32l-.69-.51c1.85-3,4.28-4.65,5.76-3.89S295.11,201.4,293.44,204.91Z" transform="translate(-135.45 -78.81)"/><path d="M293.6,205.45l-.36-.23c-1.65-1-3.29-2.16-4.9-3.33l-.46-.34-.51-.38.18-.29c2-3.22,4.6-4.88,6.25-4s1.77,4.46,0,8.22ZM288.38,201l.4.29c1.48,1.08,3,2.12,4.5,3.08,1.39-3.14,1.49-6.16.18-6.84S290.1,198.38,288.38,201Z" transform="translate(-135.45 -78.81)"/><path class="cls-2" d="M301.2,209.41s0,0,0,0l-.8-.43c-1.51-.82-2.95-1.65-4.33-2.47l-.77-.46c1.9-3.55,4.71-5.72,6.34-4.88S303.1,205.73,301.2,209.41Z" transform="translate(-135.45 -78.81)"/><path d="M301.57,210.06l-.85-.46-.51-.28c-1.36-.73-2.78-1.54-4.34-2.47l-.61-.36-.47-.29.17-.31c2.05-3.83,5-6,6.84-5s1.76,4.75-.22,8.65Zm-5.78-4.13.46.27c1.56.93,3,1.73,4.32,2.47l.46.25c1.79-3.65,1.69-6.75.43-7.4S297.55,202.82,295.79,205.93Z" transform="translate(-135.45 -78.81)"/><path class="cls-2" d="M308.46,212.76q-2.61-1-5.38-2.36l-.85-.43c1.21-3.46,3.35-5.8,5-5.33S309.57,208.79,308.46,212.76Z" transform="translate(-135.45 -78.81)"/><path d="M308.71,213.25l-.38-.14c-1.72-.66-3.49-1.44-5.41-2.38l-.66-.33-.49-.24.11-.32c1.31-3.75,3.61-6.09,5.45-5.56,2,.57,2.68,4.34,1.49,8.58Zm-6-3.47.56.29c1.75.85,3.37,1.57,4.95,2.18.89-3.55.43-6.83-1.08-7.25C305.78,204.61,303.85,206.69,302.7,209.78Z" transform="translate(-135.45 -78.81)"/><path class="cls-5" d="M328.66,218.07c.09-4.75-.13-14.28-3.09-17.24-4-4-10-8-12-5s6,4,6,8V216.2l1,.23q1.15.27,2.22.48" transform="translate(-135.45 -78.81)"/><path d="M329,218.07h-.75c.07-4.13-.06-14-3-17-3.13-3.13-7.42-6.18-9.94-5.92a1.91,1.91,0,0,0-1.49.86,1.24,1.24,0,0,0-.24.92c.16.76,1.29,1.48,2.47,2.24,1.8,1.16,3.84,2.47,3.84,4.64V215.9l.7.16c.77.18,1.51.34,2.21.48l-.14.74c-.72-.15-1.46-.31-2.23-.49-.27,0-.54-.12-.81-.18l-.48-.12V203.83c0-1.76-1.86-3-3.49-4-1.33-.86-2.58-1.66-2.8-2.73a1.93,1.93,0,0,1,.35-1.48,2.65,2.65,0,0,1,2-1.2c3-.31,7.53,3.13,10.55,6.14S329.14,212.83,329,218.07Z" transform="translate(-135.45 -78.81)"/><path class="cls-2" d="M315.8,215.23c-1.71-.48-3.52-1-5.4-1.73l-.87-.32c1.24-3,3.18-5,4.7-4.54S316.41,211.89,315.8,215.23Z" transform="translate(-135.45 -78.81)"/><path d="M316.1,215.7l-.4-.11c-1.85-.52-3.67-1.11-5.43-1.74l-.8-.29-.36-.14.07-.39c1.37-3.33,3.44-5.24,5.15-4.75s2.5,3.37,1.84,7ZM310,213l.49.18c1.62.59,3.29,1.13,5,1.61.46-3-.11-5.4-1.37-5.75S311.21,210.3,310,213Z" transform="translate(-135.45 -78.81)"/><path class="cls-2" d="M322.79,216.91q-1.07-.21-2.22-.48l-1-.23c-.65-.15-1.33-.31-2-.49l-.81-.22-.1,0c.77-2,1.85-3.38,2.92-3.84a1.77,1.77,0,0,1,1-.13C322,211.77,322.87,214,322.79,216.91Z" transform="translate(-135.45 -78.81)"/><path d="M323.15,217.36l-.43-.08c-.72-.15-1.46-.31-2.23-.49-.27,0-.54-.12-.81-.18l-.19-.05c-.66-.15-1.34-.31-2-.49l-.82-.22-.36-.13,0-.4c.82-2.07,2-3.55,3.12-4a2.16,2.16,0,0,1,1.25-.15c1.61.31,2.58,2.59,2.5,5.8Zm-6-2.15.49.13c.68.18,1.36.34,2,.49l.19,0,.8.18,1.77.39c0-2.51-.77-4.38-1.89-4.59a1.36,1.36,0,0,0-.81.1A6.18,6.18,0,0,0,317.16,215.21Z" transform="translate(-135.45 -78.81)"/><path d="M276.57,201.2a.37.37,0,0,1-.29-.14,74.44,74.44,0,0,1-8.36-13.77c-4.57-10-4.44-17.91.39-22.73,11.52-11.53,18.24-8.17,24.18-5.2l.25.13a.38.38,0,0,1,.17.5.37.37,0,0,1-.51.17l-.25-.13c-6-3-12.17-6.09-23.31,5.06s7.83,35.26,8,35.5a.37.37,0,0,1-.06.53A.32.32,0,0,1,276.57,201.2Z" transform="translate(-135.45 -78.81)"/><path d="M332.08,225.73a63.08,63.08,0,0,1-16.62-2.54.38.38,0,0,1-.25-.47.38.38,0,0,1,.47-.25c.18.05,18.13,5.53,28.28,0a12.45,12.45,0,0,0,6.25-7.79c4-14-3.1-24.75-8.85-28.58a.37.37,0,0,1-.1-.52.38.38,0,0,1,.52-.11c5.93,4,13.26,15.05,9.15,29.42a13.16,13.16,0,0,1-6.61,8.24C340.76,225.09,336.36,225.73,332.08,225.73Z" transform="translate(-135.45 -78.81)"/><path d="M307.39,176.35a4.16,4.16,0,0,1-3.08-1.26c-5.2-5.19,6.49-18,7-18.52a.38.38,0,0,1,.55.51c-.12.13-11.7,12.79-7,17.48a3.45,3.45,0,0,0,2.74,1c5.21-.21,12.63-8.92,12.71-9a.38.38,0,0,1,.57.49c-.32.37-7.72,9-13.25,9.27Z" transform="translate(-135.45 -78.81)"/><path d="M300.57,160.2h-.07c-.21,0-5.15-1.05-8.19-4.1s-4.07-9.92-4.11-10.21a.37.37,0,0,1,.32-.42.37.37,0,0,1,.42.31c0,.07,1,6.92,3.9,9.79s7.76,3.89,7.8,3.9a.37.37,0,0,1-.07.74Z" transform="translate(-135.45 -78.81)"/><path d="M344.5,181.29c-5.83,0-11.94-6.9-12.21-7.22a.37.37,0,1,1,.56-.49c.07.08,6.93,7.83,12.66,6.88a59.39,59.39,0,0,0,10.92-3,.37.37,0,0,1,.49.21.38.38,0,0,1-.21.49,62.11,62.11,0,0,1-11.08,3A7.08,7.08,0,0,1,344.5,181.29Z" transform="translate(-135.45 -78.81)"/><ellipse class="cls-1" cx="140.55" cy="399.98" rx="5" ry="7" transform="translate(-213.82 -41.9) rotate(-11.73)"/><ellipse cx="227.57" cy="284.83" rx="7" ry="5" transform="translate(-243.85 347.56) rotate(-74.22)"/><ellipse class="cls-1" cx="228.57" cy="284.83" rx="7" ry="5" transform="translate(-243.13 348.52) rotate(-74.22)"/><ellipse cx="343.52" cy="250.05" rx="7" ry="5" transform="matrix(0.68, -0.74, 0.74, 0.68, -208.57, 254.57)"/><ellipse class="cls-1" cx="342.63" cy="249.6" rx="7" ry="5" transform="translate(-208.53 253.77) rotate(-47.36)"/><ellipse cx="249.4" cy="393.2" rx="7" ry="5" transform="translate(-280.34 66.71) rotate(-25.48)"/><ellipse class="cls-1" cx="248.74" cy="392.45" rx="7" ry="5" transform="translate(-280.08 66.36) rotate(-25.48)"/><ellipse class="cls-1" cx="327.6" cy="329.65" rx="7" ry="5" transform="translate(-267.97 316.26) rotate(-53.27)"/></svg>